<?xml version="1.0" encoding="UTF-8" standalone="no"?>
<!-- Created with Inkscape (http://www.inkscape.org/) -->

<svg
   xmlns:dc="http://purl.org/dc/elements/1.1/"
   xmlns:cc="http://creativecommons.org/ns#"
   xmlns:rdf="http://www.w3.org/1999/02/22-rdf-syntax-ns#"
   xmlns:svg="http://www.w3.org/2000/svg"
   xmlns="http://www.w3.org/2000/svg"
   xmlns:xlink="http://www.w3.org/1999/xlink"
   xmlns:sodipodi="http://sodipodi.sourceforge.net/DTD/sodipodi-0.dtd"
   xmlns:inkscape="http://www.inkscape.org/namespaces/inkscape"
   id="svg2985"
   version="1.1"
   inkscape:version="0.48.4 r9939"
   width="356"
   height="328"
   sodipodi:docname="button_white.svg">
  <metadata
     id="metadata2991">
    <rdf:RDF>
      <cc:Work
         rdf:about="">
        <dc:format>image/svg+xml</dc:format>
        <dc:type
           rdf:resource="http://purl.org/dc/dcmitype/StillImage" />
        <dc:title></dc:title>
      </cc:Work>
    </rdf:RDF>
  </metadata>
  <defs
     id="defs2989">
    <linearGradient
       id="linearGradient3881">
      <stop
         style="stop-color:#ffffff;stop-opacity:1;"
         offset="0"
         id="stop3883" />
      <stop
         style="stop-color:#a02c2c;stop-opacity:1;"
         offset="1"
         id="stop3885" />
    </linearGradient>
    <radialGradient
       inkscape:collect="always"
       xlink:href="#linearGradient3881"
       id="radialGradient3887"
       cx="-34.898331"
       cy="213.05304"
       fx="-34.898331"
       fy="213.05304"
       r="164.61206"
       gradientTransform="matrix(1.493916,0,0,1.3072909,19.636404,-69.940924)"
       gradientUnits="userSpaceOnUse" />
  </defs>
  <sodipodi:namedview
     pagecolor="#ffffff"
     bordercolor="#666666"
     borderopacity="1"
     objecttolerance="10"
     gridtolerance="10"
     guidetolerance="10"
     inkscape:pageopacity="0"
     inkscape:pageshadow="2"
     inkscape:window-width="1159"
     inkscape:window-height="908"
     id="namedview2987"
     showgrid="false"
     inkscape:zoom="0.7195122"
     inkscape:cx="181.79141"
     inkscape:cy="356.60828"
     inkscape:window-x="2482"
     inkscape:window-y="275"
     inkscape:window-maximized="0"
     inkscape:current-layer="svg2985" />
  <path
     sodipodi:type="arc"
     style="fill:url(#radialGradient3887);fill-opacity:1;stroke:none;color:#000000;fill-rule:nonzero;marker:none;visibility:visible;display:inline;overflow:visible;enable-background:accumulate"
     id="path2997"
     sodipodi:cx="-36.853447"
     sodipodi:cy="25.801737"
     sodipodi:rx="164.61206"
     sodipodi:ry="160.68103"
     d="m 127.75861,25.801737 a 164.61206,160.68103 0 1 1 -329.22412,0 164.61206,160.68103 0 1 1 329.22412,0 z"
     transform="matrix(1.3540718,0,0,1.3871989,224.6436,128.27682)" />
  <path
     style="fill:#ffffff;fill-opacity:1"
     d="m 96.429505,314.06807 c -10.372407,-0.9175 -20.053697,-3.05315 -28.841697,-6.36234 -7.41377,-2.79172 -21.38301,-9.78496 -24.158303,-12.09406 -2.295404,-1.90982 -3.430892,-2.1869 8.506783,2.07578 13.03701,4.65522 32.50556,5.42136 47.812273,1.88154 21.705559,-5.01961 43.052259,-22.84433 53.637689,-44.78806 7.82524,-16.2218 10.00938,-30.89018 7.09814,-47.67003 -1.43002,-8.24239 -4.68572,-21.57143 -6.29029,-25.75287 -0.28455,-0.74153 2.46751,0.29246 6.11569,2.29775 4.67967,2.57227 8.32441,3.79625 12.37638,4.15625 5.1542,0.45793 6.43575,0.148 12.49334,-3.02133 3.7125,-1.94239 6.75,-3.35467 6.75,-3.1384 0,0.21627 -1.17077,7.49542 -2.60171,16.17591 -2.19186,13.29643 -2.52653,17.90936 -2.12445,29.28269 0.53433,15.11412 2.75272,23.49664 8.90451,33.64706 7.24423,11.95292 24.54909,27.68294 37.70023,34.26928 16.38166,8.20425 42.47595,9.26551 62.27151,2.53261 9.80693,-3.33555 10.6201,-3.00264 2.65421,1.08665 -8.95111,4.59504 -25.02903,11.02584 -32.36251,12.94426 -25.94833,6.78803 -57.49866,2.58973 -83.47822,-11.10816 l -8.8964,-4.69068 -10.28358,4.78922 c -24.61428,11.46323 -44.68338,15.48606 -67.283595,13.48693 z m 43.395805,-65.73633 c -20.74064,-8.54487 -35.56639,-22.35797 -46.297332,-43.13505 -6.73117,-13.03277 -7.59847,-17.45168 -7.59847,-38.7141 0,-10.01446 0.27314,-18.91992 0.60699,-19.7899 0.7844,-2.04413 1.681,-2.00356 12.955073,0.58618 l 9.437939,2.16797 0.0237,15.58203 c 0.0214,14.07299 0.25322,16.14009 2.39341,21.34446 6.91577,16.81727 18.36326,30.11202 32.6738,37.94627 10.93876,5.98839 11.32909,6.45917 9.92007,11.96497 -1.8017,7.04022 -5.15824,14.82852 -6.37716,14.79717 -0.62362,-0.016 -4.10575,-1.25353 -7.73806,-2.75 z m 56.75357,-1.13913 c -1.59869,-3.99552 -4.90836,-17.1847 -4.41906,-17.61016 0.14833,-0.12898 3.19469,-1.69943 6.76969,-3.48989 19.29898,-9.66546 32.29427,-24.11505 36.43817,-40.51593 1.27586,-5.04965 3.56183,-26.81825 3.56183,-33.91818 0,-1.85226 1.03873,-2.41904 7.25,-3.95594 3.9875,-0.98666 8.01448,-1.99642 8.94885,-2.24392 0.93436,-0.2475 2.62186,0.47302 3.75,1.60116 1.89622,1.89622 2.04984,3.24081 2.03379,17.80115 -0.0217,19.70328 -1.41973,26.71873 -7.92117,39.75 -8.56348,17.16435 -18.68057,28.53261 -33.29229,37.40953 -6.89608,4.18952 -17.74904,9.09047 -20.13047,9.09047 -0.78185,0 -2.12705,-1.76323 -2.98934,-3.91829 z m 152.96455,-38.18858 c -0.23824,-0.76622 -1.16567,-4.47765 -2.06096,-8.24762 -4.30228,-18.11644 -17.86354,-37.10636 -34.48449,-48.28884 -16.91676,-11.38151 -28.64998,-14.75871 -49.06847,-14.12351 -12.5856,0.39153 -14.08123,0.6546 -22.08116,3.88397 -14.95482,6.03688 -23.47444,11.54863 -35.01671,22.65397 l -10.67521,10.2711 0.49807,-6.2711 c 0.62952,-7.92625 -0.95253,-13.82173 -4.92239,-18.34314 -3.16798,-3.60813 -9.47411,-7.42796 -12.26276,-7.42796 -0.84691,0 -1.53984,-0.43068 -1.53984,-0.95706 0,-0.52638 4.6125,-2.34969 10.25,-4.05179 27.2636,-8.23158 41.76604,-17.97544 53.73993,-36.10663 8.42643,-12.759544 11.03865,-20.048904 12.21256,-34.078964 1.30859,-15.63965 -0.0768,-31.081128 -3.55644,-39.641081 C 246.97431,19.416393 238.25067,6.6823956 229.1512,-2.9979724 l -7.72169,-8.2146436 8.5,5.2579276 c 22.83849,14.127425 37.85554,32.3730034 47.79097,58.0655844 3.1912,8.2523 5.06907,16.56095 7.26206,32.13104 1.08945,7.73503 2.44613,14.93314 3.01486,15.995814 0.56873,1.06268 5.20737,5.01438 10.3081,8.78156 10.91602,8.06211 24.61503,21.35963 31.17452,30.26086 11.28972,15.32014 18.25774,35.23026 20.405,58.30443 0.98719,10.60815 0.84843,15.24678 -0.34159,11.41943 z M -4.0028151,204.35432 c -0.114289,-3.8106 2.763533,-21.31905 4.82310102,-29.34338 C 3.7692989,163.52123 8.8415254,151.50228 14.215487,143.2702 c 7.51558,-11.51272 26.219111,-29.4989 37.714021,-36.26755 l 9.5,-5.59398 0.64814,-13.398884 c 1.43626,-29.69135 12.13769,-54.597543 32.730797,-76.176709 7.090355,-7.4298604 17.068985,-15.0844954 24.959225,-19.1462804 2.81762,-1.450474 2.06296,-0.273546 -4.83959,7.54761 C 97.552545,19.922303 89.808288,40.296674 91.241988,62.550236 c 1.925,29.87957 19.298392,54.799424 48.405542,69.431404 3.41992,1.71917 11.40742,4.54986 17.75,6.29041 6.34259,1.74055 11.53198,3.47011 11.53198,3.84346 0,0.37335 -1.7502,1.20319 -3.88934,1.84409 -9.41304,2.82022 -16.04653,14.53138 -14.70351,25.95845 0.77389,6.58452 1.35802,6.88334 -12.40715,-6.3468 -19.22494,-18.47769 -31.14205,-23.87122 -55.500002,-25.11861 -16.82585,-0.86166 -24.13954,0.55114 -37.399195,7.22448 -21.280388,10.71001 -34.748677,25.51488 -43.6760591,48.01044 -5.404656,13.61886 -5.2762,13.36309 -5.357069,10.66676 z M 215.92951,116.22736 c -17.33626,-10.80482 -28.82177,-14.63993 -43.5,-14.52506 -13.75351,0.10765 -22.87826,2.97524 -37.13081,11.66895 -3.37195,2.05681 -6.85809,3.73965 -7.74699,3.73965 -0.88889,0 -5.00962,-3.22344 -9.15717,-7.16321 l -7.54099,-7.1632 3.28798,-3.412284 c 18.32395,-19.01663 59.30071,-27.27403 87.62135,-17.65697 12.52049,4.25169 31.42021,15.46854 32.66341,19.385514 0.7734,2.43679 -1.3707,5.58299 -8.669,12.72069 l -5.32778,5.21054 -4.5,-2.80462 z"
     id="biohazard"
     inkscape:connector-curvature="0" />
  <path
     sodipodi:type="arc"
     style="color:#000000;fill:none;stroke:#ffffff;stroke-width:7.91424360999999887;stroke-miterlimit:4;stroke-opacity:1;stroke-dasharray:none;marker:none;visibility:visible;display:inline;overflow:visible;enable-background:accumulate"
     id="circle1"
     sodipodi:cx="-36.853447"
     sodipodi:cy="25.801737"
     sodipodi:rx="164.61206"
     sodipodi:ry="160.68103"
     d="m 127.75861,25.801737 a 164.61206,160.68103 0 1 1 -329.22412,0 164.61206,160.68103 0 1 1 329.22412,0 z"
     transform="matrix(1.2483664,0,0,1.2789074,220.74799,131.07093)" />
  <path
     sodipodi:type="arc"
     style="opacity:0.49339211;color:#000000;fill:#ffffff;fill-opacity:1;fill-rule:nonzero;stroke:none;marker:none;visibility:visible;display:inline;overflow:visible;enable-background:accumulate"
     id="path2997-9"
     sodipodi:cx="-36.853447"
     sodipodi:cy="25.801737"
     sodipodi:rx="164.61206"
     sodipodi:ry="160.68103"
     d="m 127.75861,25.801737 a 164.61206,160.68103 0 1 1 -329.22412,0 164.61206,160.68103 0 1 1 329.22412,0 z"
     transform="matrix(1.2020966,0,0,1.2315057,210.74383,-101.6616)" />
</svg>
